<svg width="188" height="665" viewBox="0 0 188 665" fill="none" xmlns="http://www.w3.org/2000/svg">
<path d="M97.4692 544.409C111.226 544.409 121.853 549.234 129.351 558.883C136.784 568.532 140.5 582.322 140.5 600.251V664.211H0.258623V604.652C0.258623 567.424 11.5705 548.81 34.1943 548.81C39.0842 548.81 43.5828 549.983 47.6903 552.33C51.7326 554.678 55.2859 558.263 58.3502 563.088C61.4146 567.848 63.5009 573.096 64.6093 578.834H65.0005C65.7828 572.183 67.7714 566.218 70.9661 560.937C74.0956 555.656 78.0401 551.581 82.7996 548.712C87.4938 545.843 92.3837 544.409 97.4692 544.409ZM41.5291 593.699C32.8577 593.699 28.5221 600.512 28.5221 614.138V621.962H55.0251V609.737C55.0251 605.043 53.7864 601.196 51.3088 598.197C48.7661 595.198 45.5062 593.699 41.5291 593.699ZM97.2736 589.298C93.2313 589.298 89.9062 590.765 87.2983 593.699C84.6903 596.633 83.3864 600.512 83.3864 605.337V621.962H112.041V607.879C112.041 602.142 110.737 597.611 108.129 594.285C105.456 590.96 101.837 589.298 97.2736 589.298ZM140.5 465.78H125.048V466.171C129.807 469.626 133.296 472.756 135.512 475.56C137.729 478.298 139.522 481.427 140.891 484.948C142.26 488.404 142.945 492.446 142.945 497.075C142.945 508.028 139.392 516.374 132.285 522.111C125.178 527.849 114.682 530.717 100.794 530.717H40.3555V489.056H97.6648C107.51 489.056 112.432 485.372 112.432 478.004C112.432 473.962 111.096 470.93 108.422 468.909C105.749 466.823 101.968 465.78 97.078 465.78H40.3555V424.118H140.5V465.78ZM76.0516 328.864C75.3344 330.428 74.6824 332.547 74.0956 335.22C73.5088 337.893 73.2154 340.11 73.2154 341.871C73.2154 355.627 81.1696 362.506 97.078 362.506H140.5V404.167H40.3555V362.506H57.959V362.115C51.6348 359.572 46.8428 355.953 43.5828 351.259C40.2577 346.565 38.5952 341.088 38.5952 334.829C38.5952 332.547 38.9864 330.559 39.7687 328.864H76.0516ZM126.515 208.182C145.748 208.182 160.711 214.245 171.404 226.372C182.162 238.434 187.541 256.07 187.541 279.28C187.541 285.539 187.052 291.603 186.074 297.471C185.096 303.338 183.987 307.544 182.748 310.086H150.084C152.692 305.914 154.778 301.024 156.343 295.417C157.908 289.81 158.69 284.822 158.69 280.454C158.69 271.13 156.441 263.665 151.942 258.058C147.444 252.451 141.478 249.648 134.045 249.648H127.884V250.039C132.448 253.038 136.099 257.178 138.837 262.459C141.576 267.675 142.945 273.282 142.945 279.28C142.945 292.19 138.479 302.393 129.547 309.891C120.549 317.389 108.162 321.138 92.3837 321.138C81.5608 321.138 72.0093 319.182 63.7291 315.27C55.4489 311.358 49.0921 305.914 44.6586 298.938C40.1599 291.961 37.9106 284.268 37.9106 275.857C37.9106 264.317 42.1811 255.711 50.722 250.039V249.648H40.3555V208.182H126.515ZM87.5916 248.963C81.7238 248.963 77.0621 250.3 73.6066 252.973C70.1511 255.581 68.4234 259.069 68.4234 263.437C68.4234 268.131 70.5097 271.88 74.6824 274.684C78.8551 277.487 84.4295 278.889 91.4057 278.889C97.8604 278.889 102.978 277.716 106.76 275.368C110.541 273.021 112.432 269.305 112.432 264.219C112.432 259.46 110.509 255.744 106.662 253.071C102.75 250.332 97.5344 248.963 91.0145 248.963H87.5916ZM102.261 152.144C106.564 151.427 109.955 148.949 112.432 144.711C114.844 140.473 116.051 134.866 116.051 127.89C116.051 118.175 114.193 108.983 110.476 100.311H136.881C140.924 110.417 142.945 122.674 142.945 137.083C142.945 154.556 138.479 168.15 129.547 177.864C120.615 187.579 108.325 192.436 92.6771 192.436C81.9194 192.436 72.4331 190.317 64.2181 186.079C56.0031 181.776 49.5811 175.452 44.952 167.107C40.2577 158.696 37.9106 149.438 37.9106 139.332C37.9106 128.966 39.9317 120.099 43.974 112.731C48.0163 105.364 53.6886 99.7896 60.9908 96.0081C68.293 92.1614 76.8339 90.238 86.6137 90.238H102.261V152.144ZM80.4524 127.108C68.9124 127.108 63.1423 131.248 63.1423 139.528C63.1423 142.983 64.7397 145.885 67.9344 148.232C71.0639 150.579 75.2366 151.948 80.4524 152.339V127.108ZM76.0516 0.460104C75.3344 2.02486 74.6824 4.1438 74.0956 6.81693C73.5088 9.49006 73.2154 11.7068 73.2154 13.4671C73.2154 27.224 81.1696 34.1024 97.078 34.1024H140.5V75.7641H40.3555V34.1024H57.959V33.7112C51.6348 31.1685 46.8428 27.55 43.5828 22.8557C40.2577 18.1614 38.5952 12.6848 38.5952 6.42574C38.5952 4.1438 38.9864 2.15526 39.7687 0.460104H76.0516Z" fill="#272727" fill-opacity="0.33"/>
</svg>
