<svg width="98" height="257" viewBox="0 0 98 257" fill="none" xmlns="http://www.w3.org/2000/svg">
<path d="M52.7532 205.337C57.4203 205.337 61.4836 206.594 64.9432 209.107C68.4027 211.587 70.9811 215.079 72.6782 219.583C74.3753 224.087 75.2239 229.505 75.2239 235.837C75.2239 243.18 73.9837 249.903 71.5033 256.007H52.2636C54.4177 253.069 56.1638 249.822 57.5019 246.264C58.8074 242.707 59.4601 239.394 59.4601 236.326C59.4601 234.009 59.0522 232.214 58.2362 230.941C57.3877 229.668 56.1638 229.032 54.5646 229.032C53.4223 229.032 52.4268 229.358 51.5783 230.011C50.697 230.631 49.8811 231.594 49.1305 232.899C48.3798 234.172 47.3517 236.555 46.0462 240.047C41.7055 251.339 34.6885 256.986 24.9953 256.986C18.2067 256.986 12.789 254.407 8.74195 249.251C4.6623 244.094 2.62247 237.175 2.62247 228.493C2.62247 226.046 2.72039 223.794 2.91621 221.737C3.11203 219.681 3.35681 217.821 3.65054 216.157C3.94428 214.459 4.49911 212.093 5.31504 209.058H23.1839C19.9528 214.965 18.3373 220.775 18.3373 226.486C18.3373 228.836 18.7779 230.729 19.6591 232.165C20.5403 233.601 21.7479 234.319 23.2818 234.319C24.7505 234.319 25.9744 233.748 26.9535 232.606C27.9 231.431 29.1402 228.999 30.6741 225.311C33.6115 218.033 36.8262 212.893 40.3184 209.89C43.8106 206.855 47.9555 205.337 52.7532 205.337ZM47.417 142.086C52.9001 142.086 57.7467 143.017 61.9569 144.877C66.1671 146.737 69.4308 149.365 71.748 152.759C74.0653 156.153 75.2239 159.972 75.2239 164.214C75.2239 170.089 73.0862 174.544 68.8107 177.579V177.775H97.0582V198.63H23.8693V177.775H30.6741V177.579C28.1611 175.915 26.2028 173.761 24.7994 171.117C23.3634 168.474 22.6454 165.471 22.6454 162.109C22.6454 155.647 24.7994 150.703 29.1076 147.276C33.4157 143.816 39.5188 142.086 47.417 142.086ZM48.0534 163.235C44.8876 163.235 42.4072 163.855 40.6122 165.096C38.8171 166.303 37.9196 168.18 37.9196 170.726C37.9196 172.945 38.8661 174.74 40.759 176.111C42.652 177.481 45.2466 178.167 48.543 178.167H49.5221C52.6879 178.167 55.2173 177.579 57.1103 176.404C59.0032 175.229 59.9497 173.467 59.9497 171.117C59.9497 168.604 58.9216 166.662 56.8655 165.291C54.7767 163.921 51.8394 163.235 48.0534 163.235ZM10.3575 112.125C13.2948 112.125 15.6773 113.203 17.505 115.357C19.3327 117.478 20.2466 120.285 20.2466 123.777C20.2466 127.171 19.3001 129.962 17.4071 132.148C15.5142 134.302 13.1643 135.379 10.3575 135.379C7.48541 135.379 5.16817 134.335 3.40577 132.246C1.61072 130.125 0.713198 127.302 0.713198 123.777C0.713198 120.285 1.61072 117.478 3.40577 115.357C5.16817 113.203 7.48541 112.125 10.3575 112.125ZM74 134.205H23.8693V113.349H74V134.205ZM72.5803 61.9458C73.3636 63.2839 74 65.389 74.4896 68.2611C74.9791 71.1332 75.2239 74.4458 75.2239 78.1991C75.2239 83.4863 74.1632 88.2187 72.0418 92.3963C69.8877 96.5412 66.8851 99.756 63.0339 102.041C59.1827 104.325 54.8583 105.467 50.0606 105.467C44.3165 105.467 39.4046 104.26 35.3249 101.845C31.2126 99.397 28.0795 95.9211 25.9254 91.4172C23.7387 86.9132 22.6454 81.6913 22.6454 75.7513C22.6454 72.4876 22.8575 69.5666 23.2818 66.9882C23.7061 64.3773 24.1957 62.6965 24.7505 61.9458H41.0038C40.1879 62.9902 39.4699 64.4915 38.8498 66.4497C38.2296 68.408 37.9196 70.2193 37.9196 71.8838C37.9196 75.9635 38.8987 79.064 40.8569 81.1854C42.7825 83.2742 45.5077 84.3186 49.0326 84.3186C52.4921 84.3186 55.1847 83.2905 57.1103 81.2344C59.0032 79.1456 59.9497 76.2898 59.9497 72.6671C59.9497 68.7833 59.0195 65.2095 57.1592 61.9458H72.5803ZM97.5477 43.8811C97.5477 45.8393 97.3682 47.9444 97.0092 50.1964C96.6828 52.4484 96.1933 54.4556 95.5405 56.218H79.8257C80.4458 55.402 81.017 54.1945 81.5392 52.5952C82.0614 50.9634 82.3225 49.4294 82.3225 47.9934C82.3225 44.1096 80.7885 41.5312 77.7206 40.2584L73.8042 38.6428L23.8693 59.5959V36.5377L48.0534 30.4672C52.5574 29.2923 55.5926 28.6559 57.1592 28.558V28.3621C56.4412 28.2642 55.6416 28.1337 54.7604 27.9705C53.8792 27.7747 43.5821 25.229 23.8693 20.3334V0.0656937L75.4197 18.522C83.3179 21.2962 88.9805 24.7394 92.4074 28.8517C95.8343 32.9313 97.5477 37.9411 97.5477 43.8811Z" fill="#272727" fill-opacity="0.33"/>
</svg>
