<svg width="194" height="193" viewBox="0 0 194 193" fill="none" xmlns="http://www.w3.org/2000/svg">
<path d="M189.019 112.731C193.455 121.987 189.01 133.055 179.405 136.672L141.062 151.109C138.047 152.244 135.311 154.014 133.038 156.298L104.453 185.035C96.9365 192.592 84.4679 191.731 78.0609 183.214L54.5265 151.927L52.5287 153.43L54.5265 151.927C52.5219 149.262 49.95 147.076 46.9969 145.527L12.0882 127.217C2.86539 122.38 -0.117163 110.607 5.68988 101.962L28.9174 67.3817C30.677 64.7621 31.8658 61.8018 32.4068 58.6929L39.5478 17.6526C41.333 7.39223 51.6296 0.952359 61.6365 3.83736L99.5131 14.7572C102.717 15.681 106.087 15.881 109.378 15.3427L148.014 9.02347C158.533 7.3031 168.133 15.3053 168.336 25.9616L169.106 66.4876C169.167 69.7089 169.919 72.8794 171.312 75.7848L189.019 112.731Z" fill="#FFE8AE" stroke="white" stroke-width="5"/>
</svg>
